<svg id="Layer_1" data-name="Layer 1" xmlns="http://www.w3.org/2000/svg" viewBox="0 0 56.31 61"><defs><style>.cls-1,.cls-2{fill:#fff;}.cls-2{stroke:#000;stroke-miterlimit:10;}</style></defs><rect class="cls-1" x="2.06" y="6.76" width="53.74" height="53.74"/><path d="M55.31,7.26V60H2.56V7.26H55.31m1-1H1.56V61H56.31V6.26Z"/><rect class="cls-1" x="20.58" y="23.71" width="15.14" height="15.8"/><path d="M35.47,24v15.3H20.83V24H35.47m.5-.5H20.33v16.3H36V23.46Z"/><path d="M45.11,15.89V17H14.33V15.89H45.11m.25-.25H14.08v1.57H45.36V15.64Z"/><rect class="cls-1" x="11.07" y="50.18" width="4.44" height="1.31"/><path d="M15.39,50.3v1.07H11.2V50.3h4.19m.25-.25H11v1.57h4.69V50.05Z"/><rect class="cls-1" width="23.46" height="12.51"/><rect class="cls-2" x="6.01" y="5.82" width="17.38" height="6.26" transform="translate(-2.19 5.64) rotate(-20.26)"/><path d="M48.24,42.48v1.06H14.33V42.48H48.24m.25-.25H14.08v1.56H48.49V42.23Z"/><rect class="cls-1" x="9.51" y="45.48" width="16.96" height="1.31"/><path d="M26.34,45.61v1.06H9.63V45.61H26.34m.25-.25H9.38v1.56H26.59V45.36Z"/><rect class="cls-1" x="22.02" y="18.89" width="16.95" height="1.31"/><path d="M38.85,19v1.06H22.15V19h16.7m.25-.25H21.9v1.56H39.1V18.77Z"/><rect class="cls-1" x="15.77" y="53.3" width="31.03" height="1.31"/><path d="M46.67,53.43v1.06H15.89V53.43H46.67m.25-.25H15.64v1.56H46.92V53.18Z"/><path class="cls-2" d="M1.6,12.4l5.56,0Z"/></svg>